<svg width="192" height="34" viewBox="0 0 192 34" fill="none" xmlns="http://www.w3.org/2000/svg">
<path d="M44.7056 15.8525V24.4796C44.7056 26.8284 45.3807 27.7777 47.8121 27.7777C49.2528 27.7777 50.4228 27.5058 51.5034 27.145L52.629 32.4748C50.9186 33.1982 48.1721 33.6496 45.6954 33.6496C40.6088 33.6496 37.772 32.1136 37.772 25.2025V15.8525V9.88994V1.89062H44.7056V9.88994H51.9089V15.8525H44.7056Z" fill="black"/>
<path d="M68.4875 9.89062H75.3308V31.6168C72.4041 32.6563 67.767 33.6954 63.6702 33.6954C57.2774 33.6954 54.2153 30.9854 54.2153 22.7191V9.89108H61.0595V22.177C61.0595 26.333 61.7791 27.5069 65.1563 27.5069C66.2818 27.5069 67.2721 27.3265 68.4875 27.0554V9.89062Z" fill="black"/>
<path d="M78.3989 9.89056H85.3321V11.6972C86.0971 10.342 87.5836 9.25781 90.9149 9.25781C91.5901 9.25781 92.4005 9.30337 93.2101 9.39402V15.8531C92.3102 15.5816 91.0943 15.4914 89.9687 15.4914C87.4928 15.4914 85.3321 16.305 85.3321 17.8407V33.0175H78.3989V9.89056Z" fill="black"/>
<path d="M95.354 1.89062H102.288V10.5673C103.593 9.88994 105.799 9.2572 108.006 9.2572C113.994 9.2572 117.1 11.9221 117.1 21.2279C117.1 30.7128 113.634 33.6496 105.799 33.6496C102.198 33.6496 97.8303 32.9727 95.354 32.0234V1.89062ZM102.288 27.5058C103.369 27.913 104.764 28.0939 105.799 28.0939C109.086 28.0939 110.166 27.2803 110.166 21.3632C110.166 16.4844 109.176 15.2198 105.98 15.2198C103.908 15.2198 102.287 15.8525 102.287 16.8465L102.288 27.5058Z" fill="black"/>
<path d="M118.809 21.3202C118.809 11.8796 122.636 9.25977 129.974 9.25977C137.448 9.25977 141.229 11.8796 141.229 21.3202C141.229 30.8055 137.493 33.6518 129.974 33.6518C122.545 33.6518 118.809 30.8055 118.809 21.3202ZM125.788 21.4555C125.788 27.2824 126.733 28.2313 129.974 28.2313C133.261 28.2313 134.207 27.2824 134.207 21.4555C134.207 15.4032 133.261 14.6798 129.974 14.6798C126.733 14.6798 125.788 15.4032 125.788 21.4555Z" fill="black"/>
<path d="M143.223 1.89062H150.156V10.5673C151.462 9.88994 153.668 9.2572 155.874 9.2572C161.862 9.2572 164.968 11.9221 164.968 21.2279C164.968 30.7128 161.502 33.6496 153.668 33.6496C150.066 33.6496 145.699 32.9727 143.223 32.0234V1.89062ZM150.156 27.5058C151.236 27.913 152.633 28.0939 153.667 28.0939C156.955 28.0939 158.034 27.2803 158.034 21.3632C158.034 16.4844 157.044 15.2198 153.848 15.2198C151.776 15.2198 150.155 15.8525 150.155 16.8465V27.5058H150.156Z" fill="#F8641C"/>
<path d="M174.631 3.6019C174.631 6.71918 173.641 7.26036 170.714 7.26036C167.742 7.26036 166.797 6.71918 166.797 3.6019C166.797 0.756585 167.742 0.304688 170.714 0.304688C173.641 0.304687 174.631 0.756585 174.631 3.6019ZM174.18 33.0185H167.246V9.89112H174.18V33.0185Z" fill="#F8641C"/>
<path d="M184.076 15.8525V24.4796C184.076 26.8284 184.751 27.7777 187.182 27.7777C188.623 27.7777 189.793 27.5058 190.874 27.145L192 32.4748C190.289 33.1982 187.543 33.6496 185.066 33.6496C179.979 33.6496 177.143 32.1136 177.143 25.2025V15.8525V9.88994V1.89062H184.077V9.88994H191.28V15.8525H184.076Z" fill="#F8641C"/>
<path d="M25.0411 1.79077H6.43556C2.88181 1.79077 0.000488281 4.68164 0.000488281 8.24762V27.1945C0.000488281 30.7605 2.88181 33.6509 6.43556 33.6509H25.0411C28.5953 33.6509 31.4766 30.7601 31.4766 27.1945V8.24762C31.4766 4.68164 28.5953 1.79077 25.0411 1.79077ZM24.8681 28.4987C24.5303 29.0791 23.9223 29.4016 23.298 29.4016C22.987 29.4016 22.6719 29.3219 22.3836 29.1534L15.519 25.1305L9.09576 28.911C8.22991 29.4203 7.11797 29.1297 6.61036 28.2619C6.10275 27.3936 6.39242 26.2771 7.25736 25.7678L15.5149 20.9067L24.2157 26.0065C25.082 26.5139 25.3739 27.6296 24.8681 28.4987ZM24.8681 20.8169C24.5303 21.3968 23.9223 21.7198 23.298 21.7198C22.987 21.7198 22.6719 21.6401 22.3836 21.4711L15.519 17.4482L9.09576 21.2297C8.22991 21.7394 7.11797 21.4483 6.61036 20.5801C6.10275 19.7123 6.39242 18.5957 7.25736 18.0864L15.5149 13.2249L24.2157 18.3242C25.082 18.8321 25.3739 19.9478 24.8681 20.8169ZM24.8681 13.3752C24.5303 13.9547 23.9223 14.2781 23.298 14.2781C22.987 14.2781 22.6719 14.1984 22.3836 14.0294L15.519 10.006L9.09576 13.787C8.22991 14.2968 7.11797 14.0061 6.61036 13.1379C6.10275 12.2701 6.39242 11.1535 7.25736 10.6447L15.5149 5.78314L24.2157 10.882C25.082 11.3904 25.3739 12.506 24.8681 13.3752Z" fill="#F8641C"/>
</svg>
